<?xml version="1.0" encoding="UTF-8" standalone="no"?>
<svg
   xmlns:dc="http://purl.org/dc/elements/1.1/"
   xmlns:cc="http://creativecommons.org/ns#"
   xmlns:rdf="http://www.w3.org/1999/02/22-rdf-syntax-ns#"
   xmlns:svg="http://www.w3.org/2000/svg"
   xmlns="http://www.w3.org/2000/svg"
   xmlns:sodipodi="http://sodipodi.sourceforge.net/DTD/sodipodi-0.dtd"
   xmlns:inkscape="http://www.inkscape.org/namespaces/inkscape"
   width="128"
   height="128"
   viewBox="0 0 102.39991 102.39986"
   version="1.2"
   id="svg3105"
   inkscape:version="0.48.2 r9819"
   sodipodi:docname="logo.svg"
   inkscape:export-filename="/Users/rchen/dev/projects/github.com/concept-not-found/logo/logo-256.png"
   inkscape:export-xdpi="180"
   inkscape:export-ydpi="180">
  <metadata
     id="metadata3167">
    <rdf:RDF>
      <cc:Work
         rdf:about="">
        <dc:format>image/svg+xml</dc:format>
        <dc:type
           rdf:resource="http://purl.org/dc/dcmitype/StillImage" />
        <dc:title>Qt Svg Document</dc:title>
      </cc:Work>
    </rdf:RDF>
  </metadata>
  <sodipodi:namedview
     pagecolor="#ffffff"
     bordercolor="#666666"
     borderopacity="1"
     objecttolerance="10"
     gridtolerance="10"
     guidetolerance="10"
     inkscape:pageopacity="0"
     inkscape:pageshadow="2"
     inkscape:window-width="2560"
     inkscape:window-height="1392"
     id="namedview3165"
     showgrid="false"
     inkscape:zoom="1.5820211"
     inkscape:cx="458.50149"
     inkscape:cy="314.5874"
     inkscape:window-x="0"
     inkscape:window-y="0"
     inkscape:window-maximized="1"
     inkscape:current-layer="svg3105" />
  <title
     id="title3107">Qt Svg Document</title>
  <desc
     id="desc3109">Generated with Qt</desc>
  <defs
     id="defs3111" />
  <g
     style="font-size:13px;font-style:normal;font-weight:400;fill:none;stroke:#000000;stroke-width:1;stroke-linecap:square;stroke-linejoin:bevel;stroke-opacity:1;font-family:'.Lucida Grande UI'"
     id="g3115"
     font-style="normal"
     font-weight="400"
     font-size="13"
     transform="translate(0,-357.60032)" />
  <g
     style="font-size:13px;font-style:normal;font-weight:400;fill:none;stroke:#000000;stroke-width:1;stroke-linecap:square;stroke-linejoin:bevel;stroke-opacity:1;font-family:'.Lucida Grande UI'"
     id="g3121"
     font-style="normal"
     font-weight="400"
     font-size="13"
     transform="translate(0,-357.60032)" />
  <g
     style="font-size:13px;font-style:normal;font-weight:400;fill:#000000;fill-opacity:1;fill-rule:evenodd;stroke:#000000;stroke-width:1;stroke-linecap:square;stroke-linejoin:bevel;stroke-opacity:1;font-family:'.Lucida Grande UI'"
     id="g3123"
     font-style="normal"
     font-weight="400"
     font-size="13"
     transform="matrix(0.998596,0,0,0.997826,0,-357.60032)" />
  <path
     style="font-size:13px;font-style:normal;font-weight:400;fill:#000000;fill-opacity:1;stroke:none;font-family:'.Lucida Grande UI'"
     d="m 51.158396,11.199794 -0.527233,0.01307 -0.527232,0.01307 -0.522872,0.02179 -0.527232,0.0305 -0.522873,0.03486 -0.527232,0.04357 -0.522873,0.05229 -0.522873,0.05664 -0.518513,0.06536 -0.522873,0.06972 -0.522873,0.07843 -0.518513,0.08279 -0.514162,0.0915 -0.518513,0.100218 -0.514162,0.104575 -0.514154,0.108931 -0.514162,0.117647 -0.509802,0.126361 -0.509803,0.130719 -0.505443,0.139432 -0.505443,0.143791 -0.505443,0.152505 -0.501084,0.156862 -0.501091,0.165576 -0.496725,0.174291 -0.492373,0.17429 -0.492373,0.187363 -0.492372,0.187363 -0.488014,0.200435 -0.483662,0.200435 -0.483654,0.213506 -0.479303,0.213507 -0.474943,0.222221 -0.474943,0.230936 -0.470584,0.235293 -0.466232,0.239649 -0.466225,0.248365 -0.457514,0.252722 -0.457513,0.257079 -0.453154,0.265795 -0.453163,0.274508 -0.444443,0.274509 -0.444443,0.283221 -0.440084,0.287581 -0.435725,0.296295 -0.431373,0.300652 -0.427014,0.305009 -0.422654,0.313724 -0.422655,0.313725 -0.413943,0.322437 -0.409584,0.331153 -0.409585,0.331153 -0.400865,0.339868 -0.396514,0.344225 -0.392154,0.348581 -0.392155,0.35294 -0.383444,0.357297 -0.379076,0.366011 -0.374725,0.370369 -0.366014,0.374726 -0.366014,0.379082 -0.361655,0.38344 -0.352936,0.387798 -0.348584,0.392155 -0.344225,0.396512 -0.339866,0.400868 -0.331155,0.409584 -0.331147,0.409585 -0.322444,0.413941 -0.318077,0.418299 -0.309366,0.422655 -0.305014,0.431371 -0.300647,0.43137 -0.296296,0.431371 -0.287584,0.440083 -0.283218,0.444443 -0.278866,0.444443 -0.270155,0.453156 -0.265796,0.453158 -0.261436,0.457512 -0.252718,0.457514 -0.248366,0.466229 -0.239647,0.46623 -0.235296,0.470583 -0.230936,0.470587 -0.222218,0.479301 -0.213507,0.479301 -0.213507,0.479299 -0.200437,0.483658 -0.200436,0.488015 -0.187359,0.492372 -0.187366,0.488014 -0.178648,0.49673 -0.169929,0.49673 -0.165577,0.49673 -0.156867,0.501085 -0.152499,0.505445 -0.143796,0.505444 -0.139429,0.505444 -0.130719,0.5098 -0.126358,0.509802 -0.117648,0.514159 -0.113289,0.514159 -0.104578,0.514157 -0.09586,0.514159 -0.09151,0.518517 -0.08714,0.518516 -0.07843,0.518514 -0.06969,0.522874 -0.06101,0.522873 -0.06102,0.518515 -0.04797,0.527231 -0.04359,0.522873 -0.03484,0.522874 -0.03047,0.522872 -0.0218,0.527231 -0.01742,0.52723 -0.0087,0.522874 0,0.527229 0.0047,0.522873 0.0087,0.527232 0.0218,0.522873 0.02617,0.527229 0.03047,0.522874 0.03922,0.52723 0.04797,0.522872 0.05227,0.522874 0.06102,0.518516 0.06539,0.522874 0.07406,0.522872 0.08279,0.518515 0.08715,0.518517 0.09151,0.514159 0.10457,0.518514 0.104577,0.514159 0.117648,0.509802 0.11764,0.514159 0.130719,0.5098 0.135077,0.505444 0.139437,0.509802 0.148148,0.501088 0.156858,0.505442 0.161219,0.49673 0.165577,0.501087 0.174288,0.492373 0.183007,0.496728 0.187367,0.488015 0.191718,0.488016 0.200436,0.488015 0.209148,0.483656 0.213507,0.479301 0.217866,0.479301 0.226577,0.474943 0.230936,0.470585 0.235289,0.470586 0.244006,0.461871 0.252726,0.46623 0.252725,0.457512 0.265788,0.453157 0.265796,0.453157 0.274506,0.4488 0.278866,0.44444 0.287585,0.444443 0.291936,0.435728 0.296296,0.431371 0.305006,0.43137 0.305007,0.427012 0.318084,0.418299 0.318077,0.418299 0.326803,0.413942 0.326796,0.409582 0.335506,0.405227 0.344226,0.396513 -6.697136,6.692775 4.130701,4.126341 6.697135,-6.692776 0.396507,0.344225 0.405232,0.335511 0.409584,0.331151 0.413936,0.322439 0.418303,0.322438 0.422654,0.313725 0.427014,0.309366 0.431365,0.300652 0.435733,0.296296 0.435725,0.291935 0.444443,0.287581 0.444443,0.278866 0.448795,0.274508 0.453162,0.270152 0.457514,0.261436 0.457514,0.25708 0.461873,0.248364 0.470584,0.244007 0.466224,0.239651 0.474943,0.230935 0.474944,0.222221 0.479302,0.222222 0.479303,0.213506 0.483654,0.204793 0.488013,0.200434 0.488022,0.191719 0.492365,0.187363 0.496732,0.183008 0.496732,0.17429 0.496725,0.16558 0.501091,0.16121 0.505443,0.15687 0.505443,0.14814 0.505444,0.13944 0.509802,0.13507 0.509802,0.12636 0.514154,0.12201 0.514162,0.11329 0.514154,0.10893 0.518522,0.10022 0.514154,0.0959 0.52288,0.0871 0.518513,0.0784 0.522873,0.0741 0.518514,0.0654 0.522872,0.061 0.527232,0.0523 0.522873,0.048 0.522873,0.0392 0.527232,0.0305 0.527232,0.0262 0.527224,0.0174 0.522873,0.013 0.527232,0.005 0.527232,-0.005 0.527232,-0.009 0.527232,-0.013 0.522873,-0.0262 0.527224,-0.0305 0.522873,-0.0349 0.527232,-0.0436 0.522873,-0.0523 0.522873,-0.0566 0.522872,-0.0654 0.522873,-0.0697 0.518521,-0.0784 0.518514,-0.0828 0.518513,-0.0915 0.518521,-0.10022 0.514154,-0.10457 0.514162,-0.11329 0.514154,-0.11765 0.50981,-0.12636 0.509803,-0.13072 0.509802,-0.13943 0.505443,-0.14815 0.505443,-0.1525 0.501084,-0.15687 0.501092,-0.16557 0.496724,-0.17429 0.492373,-0.178652 0.492373,-0.183007 0.492373,-0.19172 0.488013,-0.196076 0.483662,-0.204792 0.483654,-0.213507 0.479303,-0.213506 0.474943,-0.226578 0.474943,-0.226579 0.470584,-0.235294 0.466233,-0.244007 0.466224,-0.248363 0.461873,-0.252722 0.457514,-0.261437 0.453154,-0.265794 0.448803,-0.270152 0.448795,-0.278865 0.444443,-0.283224 0.440084,-0.291938 0.435733,-0.296293 0.431365,-0.300652 0.427014,-0.305009 0.422654,-0.313725 0.418303,-0.318081 0.418295,-0.322439 0.409584,-0.326794 0.405225,-0.335511 0.405233,-0.339868 0.396514,-0.344225 0.392154,-0.348582 0.387795,-0.357297 0.383436,-0.357295 0.379084,-0.366012 0.374725,-0.370368 0.370374,-0.374726 0.366006,-0.379084 0.357295,-0.387796 0.352944,-0.387798 0.348585,-0.392154 0.344225,-0.400871 0.339865,-0.400869 0.331147,-0.409583 0.331155,-0.409584 0.322444,-0.413942 0.313717,-0.422656 0.313726,-0.422656 0.305014,-0.431369 0.300647,-0.431371 0.291936,-0.435727 0.291944,-0.440086 0.278866,-0.44444 0.278866,-0.444443 0.270148,-0.453157 0.265795,-0.453157 0.257077,-0.457514 0.252726,-0.46187 0.248358,-0.466229 0.239655,-0.466229 0.235288,-0.470586 0.230937,-0.474942 0.222225,-0.474944 0.213507,-0.483658 0.209148,-0.4793 0.204788,-0.488014 0.196077,-0.488015 0.191726,-0.488015 0.182999,-0.492373 0.174292,-0.496728 0.174289,-0.49673 0.161218,-0.501087 0.156866,-0.501087 0.1525,-0.505443 0.143796,-0.505444 0.139429,-0.505445 0.130718,-0.509802 0.122007,-0.514157 0.117641,-0.509802 0.113288,-0.514159 0.104578,-0.518514 -9.68622,0 -0.117648,0.444441 -0.126359,0.440085 -0.130718,0.440085 -0.135077,0.435728 -0.143789,0.435726 -0.152507,0.431371 -0.156859,0.431371 -0.165577,0.427013 -0.169937,0.422656 -0.174288,0.422654 -0.183007,0.422657 -0.187359,0.413941 -0.196077,0.413942 -0.200437,0.41394 -0.209147,0.409584 -0.213507,0.400869 -0.217866,0.405227 -0.226577,0.396513 -0.230937,0.396511 -0.239647,0.392155 -0.244007,0.387798 -0.248366,0.383441 -0.252726,0.379082 -0.261436,0.379082 -0.265788,0.370369 -0.274514,0.370369 -0.274507,0.366011 -0.283225,0.357297 -0.287577,0.357297 -0.296296,0.352938 -0.296295,0.344225 -0.305007,0.344225 -0.309366,0.339868 -0.313725,0.331153 -0.318084,0.331152 -0.322436,0.322438 -0.331155,0.318082 -0.331147,0.313724 -0.339874,0.309367 -0.339866,0.305009 -0.348584,0.300653 -0.352936,0.291935 -0.352936,0.287581 -0.361655,0.283223 -0.366014,0.278866 -0.366014,0.270151 -0.374725,0.270152 -0.374724,0.25708 -0.379085,0.257077 -0.387795,0.248365 -0.387795,0.244008 -0.387803,0.23965 -0.396514,0.230936 -0.400866,0.226578 -0.400865,0.222222 -0.405233,0.213506 -0.405224,0.204791 -0.413944,0.204792 -0.413936,0.196078 -0.418302,0.187362 -0.418296,0.183007 -0.422654,0.178648 -0.427014,0.169934 -0.427013,0.165576 -0.431374,0.156862 -0.431373,0.148148 -0.435724,0.148148 -0.435725,0.135075 -0.440084,0.135074 -0.440084,0.122004 -0.440092,0.117646 -0.444436,0.113289 -0.448802,0.104576 -0.444444,0.100216 -0.448795,0.0915 -0.453162,0.08279 -0.448795,0.07843 -0.453162,0.07407 -0.453154,0.06536 -0.457514,0.05665 -0.453154,0.05229 -0.457514,0.04357 -0.457513,0.03922 -0.453162,0.0305 -0.457514,0.02179 -0.461865,0.01743 -0.457514,0.0087 -0.457521,0.0044 -0.457506,-0.0044 -0.457514,-0.0087 -0.457521,-0.01743 -0.457514,-0.02614 -0.457513,-0.0305 -0.457514,-0.03922 -0.457514,-0.04357 -0.453154,-0.05229 -0.453154,-0.05665 -0.457514,-0.06536 -0.448803,-0.07407 -0.453154,-0.07843 -0.448803,-0.08279 -0.448794,-0.09586 -0.448803,-0.09586 -0.444472,-0.108931 -0.444443,-0.108932 -0.444443,-0.122004 -0.440084,-0.122004 -0.440084,-0.135074 -0.435725,-0.135076 -0.435733,-0.148147 -0.431365,-0.152505 -0.431373,-0.156862 -0.427014,-0.165577 -0.422654,-0.169933 -0.422655,-0.178649 -0.422654,-0.183006 -0.413944,-0.187362 -0.413943,-0.196078 -0.413936,-0.204793 -0.405232,-0.209147 -0.405225,-0.213507 -0.400866,-0.217864 -0.400873,-0.226579 -0.392154,-0.235292 -0.392155,-0.235294 -0.387795,-0.244007 -0.383444,-0.252723 -0.379084,-0.25272 -0.379077,-0.261437 -0.370373,-0.270151 -0.370366,-0.270151 -0.361654,-0.278866 -0.361655,-0.283224 -0.357295,-0.28758 43.049883,-43.019383 0.291936,0.357297 0.287585,0.361654 0.278866,0.366011 0.274507,0.37037 0.265795,0.374724 0.265788,0.379083 0.257085,0.383441 0.248358,0.38344 0.248366,0.392156 0.239656,0.392153 0.230936,0.396512 0.230937,0.40087 0.217858,0.405227 0.217866,0.405227 0.209148,0.41394 0.200436,0.409584 0.200429,0.418299 0.187367,0.418298 0.187366,0.422657 0.174288,0.427012 0.174289,0.427013 0.161225,0.427013 0.161219,0.435728 0.152499,0.435726 0.143788,0.435728 0.139437,0.440086 0.130718,0.440085 0.126359,0.444442 0.117648,0.444441 9.68622,0 -0.104578,-0.5098 -0.108929,-0.509802 -0.117648,-0.505444 -0.122,-0.505444 L 90.278401,41.025376 90.143324,40.524289 90.003895,40.023202 89.855747,39.522114 89.69888,39.025387 89.537662,38.533014 89.367726,38.040641 89.193441,37.548269 89.014793,37.064612 88.827427,36.576597 88.63135,36.092939 88.435273,35.613638 88.226125,35.13434 88.016978,34.659395 87.79476,34.188809 87.572534,33.718223 87.341598,33.251996 87.10631,32.790125 86.862303,32.328252 86.613937,31.870739 86.361211,31.417581 86.099775,30.968783 85.833979,30.519984 85.559473,30.075541 85.284966,29.635456 84.997389,29.199729 84.709804,28.768359 84.413509,28.341346 84.117213,27.914332 83.807847,27.491676 83.498482,27.077736 83.180405,26.663794 82.857961,26.25421 82.531165,25.848983 82.200018,25.448114 81.860145,25.05596 88.55728,18.363184 84.430938,14.236843 77.733803,20.92962 77.332938,20.585395 76.927713,20.249884 76.518129,19.918731 76.104186,19.596292 75.68589,19.278212 75.263228,18.964488 74.840574,18.655122 74.409209,18.350112 73.973476,18.053817 73.537751,17.761879 73.097667,17.478658 72.653224,17.199792 72.20007,16.925283 71.751267,16.655132 71.293753,16.393695 70.83624,16.136616 70.370015,15.888251 69.903783,15.644243 69.43755,15.404594 68.962607,15.173659 68.487672,14.951437 68.012729,14.729216 67.529067,14.520067 67.045412,14.310917 66.56175,14.110482 66.073737,13.918762 65.581364,13.731399 65.084632,13.548395 64.592267,13.374104 64.091175,13.208527 63.590091,13.047308 63.089,12.890446 62.583557,12.746656 62.078114,12.602865 61.568311,12.46779 61.058509,12.341429 60.548714,12.219425 60.034552,12.106136 59.52039,11.997204 l -0.518513,-0.100218 -0.518513,-0.09586 -0.518514,-0.08715 -0.518521,-0.07843 -0.518513,-0.07407 -0.522873,-0.06972 -0.522873,-0.05664 -0.522872,-0.05664 -0.522873,-0.04357 -0.527232,-0.03922 -0.522873,-0.03486 -0.527232,-0.02614 -0.522873,-0.01743 -0.527232,-0.01307 -0.527224,-0.0044 -0.522881,0 z m 0.326795,9.442216 0.461865,0.0044 0.457514,0.0087 0.461873,0.01307 0.457513,0.02614 0.461873,0.0305 0.457514,0.03486 0.457514,0.04357 0.457513,0.05229 0.457514,0.05664 0.457514,0.06536 0.453162,0.06972 0.453154,0.07843 0.453154,0.08279 0.448803,0.0915 0.453154,0.100218 0.444444,0.104574 0.448795,0.11329 0.444443,0.117644 0.444443,0.126362 0.440084,0.130718 0.440084,0.139433 0.435733,0.14379 0.435725,0.152505 0.431373,0.156862 0.427013,0.165577 0.427006,0.169934 0.427014,0.178648 0.422662,0.183005 0.418295,0.191721 0.413944,0.196076 0.413936,0.200434 0.409584,0.20915 0.409584,0.217864 0.400873,0.222221 0.400866,0.226579 0.396514,0.230936 0.396513,0.23965 0.387796,0.244008 0.387803,0.25272 0.379076,0.25708 0.379084,0.261436 0.374725,0.270152 0.370374,0.270151 0.366006,0.278866 0.361655,0.28758 0.357295,0.287579 L 27.977684,70.646126 27.685748,70.288831 27.402522,69.927177 27.123656,69.561166 26.84915,69.190796 26.579002,68.816071 26.317566,68.441346 26.060481,68.057906 25.807763,67.670108 25.563757,67.28231 25.324102,66.890155 25.093173,66.493644 24.862236,66.092775 24.64437,65.691905 24.426504,65.28232 24.217356,64.872736 24.01692,64.463154 23.820842,64.044855 23.629125,63.626556 23.446117,63.2039 23.26747,62.781245 23.097541,62.354232 22.931963,61.922862 22.770738,61.491491 22.62259,61.06012 22.47445,60.620037 22.335013,60.184308 22.204295,59.744223 22.077936,59.299781 21.960288,58.85534 l -0.113289,-0.444443 -0.104577,-0.448799 -0.09586,-0.4488 -0.0915,-0.453158 -0.08715,-0.448798 -0.07843,-0.457514 -0.06969,-0.453157 -0.06539,-0.453157 -0.05664,-0.457512 -0.05227,-0.457515 -0.04359,-0.457514 -0.03484,-0.457514 -0.03055,-0.46187 -0.0218,-0.457515 -0.01742,-0.461871 -0.0087,-0.457514 -0.0047,-0.461873 0.0047,-0.457512 0.01305,-0.461872 0.01742,-0.457514 0.02617,-0.461872 0.03484,-0.457512 0.03922,-0.457514 0.04359,-0.457515 0.05227,-0.457514 0.06101,-0.457513 0.06539,-0.453157 0.07406,-0.453157 0.08279,-0.453157 0.08715,-0.453157 0.0915,-0.448798 0.104577,-0.4488 0.10457,-0.4488 0.117648,-0.444443 0.117648,-0.44444 0.130718,-0.440086 0.130719,-0.440084 0.143788,-0.440086 0.148148,-0.435728 0.152507,-0.431369 0.161218,-0.431371 0.165577,-0.431371 0.174289,-0.422656 0.178655,-0.422654 0.187359,-0.422656 0.191718,-0.418299 0.200436,-0.413941 0.204788,-0.413942 0.213507,-0.405225 0.213507,-0.405227 0.226585,-0.405227 0.226577,-0.396512 0.235288,-0.396513 0.244007,-0.392154 0.248366,-0.387797 0.252726,-0.383441 0.257077,-0.379083 0.265795,-0.379084 0.270148,-0.370367 0.274514,-0.370368 0.283218,-0.361654 0.283225,-0.361655 0.296296,-0.352939 0.296295,-0.352938 0.300647,-0.344225 0.309374,-0.344226 0.313717,-0.33551 0.318085,-0.335511 0.322436,-0.326795 0.326795,-0.322437 0.335515,-0.318082 0.335506,-0.313724 0.339866,-0.30501 0.348584,-0.305009 0.352936,-0.296295 0.352944,-0.291936 0.361654,-0.28758 0.366015,-0.278866 0.366006,-0.274509 0.374725,-0.270151 0.374725,-0.265795 0.383443,-0.257079 0.383444,-0.252721 0.387795,-0.248364 0.392155,-0.244008 0.396514,-0.235293 0.396506,-0.226579 0.40524,-0.222221 0.405225,-0.217864 0.405225,-0.213507 0.413943,-0.204792 0.413936,-0.196075 0.418303,-0.196079 0.422654,-0.183005 0.422655,-0.178648 0.427013,-0.174292 0.427014,-0.169933 0.431373,-0.156862 0.435725,-0.156863 0.435725,-0.148147 0.440084,-0.139433 0.440091,-0.135076 0.440084,-0.126361 0.444436,-0.122003 0.444443,-0.113288 0.448803,-0.108932 0.448803,-0.100217 0.453154,-0.0915 0.448795,-0.08714 0.453162,-0.08279 0.457514,-0.07408 0.453154,-0.06536 0.457514,-0.061 0.457513,-0.05229 0.457514,-0.04793 0.457514,-0.03922 0.461873,-0.0305 0.457513,-0.02614 0.461873,-0.01743 0.457514,-0.01307 0.461865,-0.0044 z"
     id="polyline3139"
     inkscape:connector-curvature="0" />
  <g
     style="font-size:13px;font-style:normal;font-weight:400;fill:#ffffff;fill-opacity:1;fill-rule:evenodd;stroke:#ffffff;stroke-width:1;stroke-linecap:square;stroke-linejoin:bevel;stroke-opacity:1;font-family:'.Lucida Grande UI'"
     id="g3159"
     font-style="normal"
     font-weight="400"
     font-size="13"
     transform="matrix(0.998596,0,0,0.997826,0,-357.60032)" />
  <g
     style="font-size:13px;font-style:normal;font-weight:400;fill:#ffffff;fill-opacity:1;fill-rule:evenodd;stroke:#ffffff;stroke-width:1;stroke-linecap:square;stroke-linejoin:bevel;stroke-opacity:1;font-family:'.Lucida Grande UI'"
     id="g3161"
     font-style="normal"
     font-weight="400"
     font-size="13"
     transform="translate(0,-357.60032)" />
  <g
     style="font-size:13px;font-style:normal;font-weight:400;fill:none;stroke:#000000;stroke-width:1;stroke-linecap:square;stroke-linejoin:bevel;stroke-opacity:1;font-family:'.Lucida Grande UI'"
     id="g3163"
     font-style="normal"
     font-weight="400"
     font-size="13"
     transform="translate(0,-357.60032)" />
</svg>
